<svg width="28" height="28" viewBox="0 0 28 28" fill="none" xmlns="http://www.w3.org/2000/svg">
<path d="M20.6823 20.576C20.6823 20.624 20.6343 20.672 20.5863 20.672H18.0903C18.0423 20.672 17.9943 20.624 17.9943 20.576V8.528C17.9943 6.368 16.2663 4.688 14.1543 4.688H13.8663C11.7063 4.688 10.0263 6.368 10.0263 8.528V20.576C10.0263 20.624 9.97831 20.672 9.93031 20.672H7.43431C7.38631 20.672 7.33831 20.624 7.33831 20.576V2.096C7.33831 2.048 7.38631 2 7.43431 2H20.5863C20.6343 2 20.6823 2.048 20.6823 2.096V20.576ZM4.65031 19.472C4.65031 21.632 6.37831 23.312 8.49031 23.312H8.82631C10.9383 23.312 12.6663 21.632 12.6663 19.472V7.424C12.6663 7.376 12.7143 7.328 12.7623 7.328H15.2583C15.3063 7.328 15.3543 7.376 15.3543 7.424V25.904C15.3543 25.952 15.3063 26 15.2583 26H2.10631C2.05831 26 2.01031 25.952 2.01031 25.904V2.096C2.01031 2.048 2.05831 2 2.10631 2H4.55431C4.65031 2 4.65031 2.048 4.65031 2.096V19.472ZM26.0103 25.904C26.0103 25.952 25.9623 26 25.9143 26H12.7623C12.7143 26 12.6663 25.952 12.6663 25.904V7.424C12.6663 7.376 12.7143 7.328 12.7623 7.328H15.2583C15.3063 7.328 15.3543 7.376 15.3543 7.424V19.472C15.3543 21.632 17.0343 23.312 19.1943 23.312H19.4823C21.6423 23.312 23.3223 21.632 23.3223 19.472V2.096C23.3223 2.048 23.3703 2 23.4183 2H25.9143C25.9623 2 26.0103 2.048 26.0103 2.096V25.904Z" fill="#7126FF"/>
</svg>
