<svg width="40" height="40" viewBox="0 0 40 40" fill="none" xmlns="http://www.w3.org/2000/svg">
<path d="M19.6571 3.83341C19.7384 3.18361 19.779 2.85872 19.8408 2.80066C19.9307 2.71619 20.0703 2.71619 20.1601 2.80066C20.2219 2.85872 20.2625 3.18361 20.3438 3.83341L21.3772 12.0959C21.41 12.3582 21.4264 12.4893 21.4734 12.5434C21.5417 12.622 21.6534 12.6458 21.7476 12.602C21.8125 12.5718 21.8805 12.4587 22.0166 12.2325L26.3031 5.10698C26.6402 4.54659 26.8088 4.2664 26.8887 4.23863C27.0049 4.1982 27.1325 4.2553 27.1804 4.36922C27.2133 4.44751 27.119 4.76094 26.9304 5.38779L24.5319 13.3585C24.4558 13.6115 24.4177 13.738 24.4388 13.8067C24.4695 13.9064 24.5618 13.9739 24.6656 13.9724C24.7371 13.9713 24.845 13.8958 25.0608 13.7449L31.8593 8.98829C32.394 8.61421 32.6613 8.42718 32.7455 8.43448C32.8681 8.4451 32.9615 8.54941 32.9592 8.67309C32.9576 8.75808 32.7447 9.00584 32.3188 9.50136L26.9032 15.8021C26.7313 16.0021 26.6453 16.1021 26.6368 16.1735C26.6245 16.2771 26.6816 16.3765 26.777 16.4176C26.8427 16.4459 26.9718 16.421 27.23 16.3714L35.365 14.8062C36.0048 14.6831 36.3246 14.6216 36.3986 14.6627C36.5063 14.7225 36.5495 14.856 36.4973 14.9681C36.4615 15.0451 36.1667 15.1843 35.5772 15.4628L28.0809 19.0042C27.8429 19.1166 27.724 19.1728 27.6873 19.2345C27.6341 19.3242 27.646 19.4383 27.7166 19.5149C27.7652 19.5676 27.8932 19.5977 28.1492 19.6579L36.214 21.5548C36.8483 21.704 37.1654 21.7786 37.2164 21.8464C37.2905 21.9451 37.2759 22.0847 37.183 22.1657C37.1191 22.2214 36.7935 22.2281 36.1422 22.2414L27.8614 22.4111C27.5986 22.4164 27.4671 22.4191 27.4087 22.4605C27.3238 22.5206 27.2886 22.6298 27.3221 22.7286C27.3451 22.7966 27.4499 22.8765 27.6594 23.0362L34.2596 28.0672C34.7786 28.4628 35.0382 28.6607 35.0573 28.7435C35.0851 28.864 35.0153 28.9855 34.8976 29.0215C34.8167 29.0463 34.5166 28.9192 33.9162 28.6651L26.2827 25.4336C26.0404 25.331 25.9192 25.2798 25.8491 25.2937C25.7473 25.3139 25.6709 25.3992 25.6615 25.5031C25.6551 25.5747 25.7185 25.6905 25.8453 25.9221L29.8396 33.2172C30.1537 33.791 30.3108 34.0778 30.2948 34.1613C30.2714 34.2827 30.1585 34.3652 30.0364 34.35C29.9525 34.3396 29.7297 34.1007 29.2841 33.6231L23.6177 27.5493C23.4379 27.3565 23.3479 27.2601 23.2783 27.2441C23.177 27.2209 23.0727 27.2676 23.0222 27.3587C22.9873 27.4215 22.9984 27.5532 23.0205 27.8166L23.7184 36.1145C23.7732 36.7671 23.8007 37.0934 23.7523 37.1631C23.6818 37.2645 23.5453 37.2937 23.4399 37.2299C23.3675 37.186 23.2605 36.8767 23.0467 36.2581L20.3273 28.3922C20.241 28.1425 20.1978 28.0176 20.1406 27.9746C20.0575 27.912 19.9434 27.912 19.8603 27.9746C19.8031 28.0176 19.7599 28.1425 19.6736 28.3922L16.9542 36.2581C16.7404 36.8767 16.6335 37.186 16.561 37.2299C16.4557 37.2937 16.3191 37.2645 16.2487 37.1631C16.2003 37.0934 16.2277 36.7671 16.2826 36.1145L16.9804 27.8166C17.0025 27.5532 17.0136 27.4215 16.9788 27.3587C16.9282 27.2676 16.8239 27.2209 16.7227 27.2441C16.653 27.2601 16.563 27.3565 16.3832 27.5493L10.7169 33.6231C10.2712 34.1007 10.0484 34.3396 9.96452 34.35C9.84243 34.3652 9.72948 34.2827 9.70616 34.1613C9.69013 34.0778 9.8472 33.791 10.1613 33.2172L14.1556 25.9221C14.2824 25.6905 14.3458 25.5747 14.3394 25.5031C14.33 25.3992 14.2537 25.3139 14.1518 25.2937C14.0817 25.2798 13.9605 25.331 13.7182 25.4336L6.08469 28.6651C5.48436 28.9192 5.18419 29.0463 5.10331 29.0215C4.98561 28.9855 4.91581 28.864 4.94363 28.7435C4.96276 28.6607 5.22229 28.4628 5.74135 28.0672L12.3415 23.0362C12.551 22.8765 12.6558 22.7966 12.6789 22.7286C12.7124 22.6298 12.6771 22.5206 12.5922 22.4605C12.5338 22.4191 12.4024 22.4164 12.1395 22.4111L3.85869 22.2414C3.20745 22.2281 2.88183 22.2214 2.81795 22.1657C2.725 22.0847 2.71041 21.9451 2.78457 21.8464C2.83554 21.7786 3.15266 21.704 3.78691 21.5548L11.8517 19.6579C12.1077 19.5977 12.2357 19.5676 12.2843 19.5149C12.3549 19.4383 12.3668 19.3242 12.3136 19.2345C12.277 19.1728 12.158 19.1166 11.92 19.0042L4.42374 15.4628C3.8342 15.1843 3.53944 15.0451 3.50361 14.9681C3.45147 14.856 3.49461 14.7225 3.60229 14.6627C3.67629 14.6216 3.99617 14.6831 4.63594 14.8062L12.7709 16.3714C13.0291 16.421 13.1582 16.4459 13.2239 16.4176C13.3194 16.3765 13.3765 16.2771 13.3641 16.1735C13.3556 16.1021 13.2697 16.0021 13.0977 15.8021L7.68216 9.50136C7.25625 9.00584 7.0433 8.75808 7.04172 8.67309C7.03941 8.54941 7.13283 8.4451 7.25541 8.43448C7.33964 8.42718 7.60697 8.61421 8.14163 8.98829L14.9401 13.7449C15.1559 13.8958 15.2638 13.9713 15.3353 13.9724C15.4391 13.9739 15.5315 13.9064 15.5621 13.8067C15.5832 13.738 15.5451 13.6115 15.469 13.3585L13.0705 5.38779C12.8819 4.76094 12.7876 4.44751 12.8205 4.36922C12.8684 4.2553 12.996 4.1982 13.1123 4.23863C13.1922 4.2664 13.3607 4.54659 13.6978 5.10698L17.9843 12.2325C18.1204 12.4587 18.1884 12.5718 18.2533 12.602C18.3475 12.6458 18.4592 12.622 18.5275 12.5434C18.5746 12.4893 18.591 12.3582 18.6238 12.0959L19.6571 3.83341Z" fill="#EF4D2F"/>
</svg>
