<svg width="28" height="28" viewBox="0 0 28 28" fill="none" xmlns="http://www.w3.org/2000/svg">
<path d="M21.1823 20.576C21.1823 20.624 21.1343 20.672 21.0863 20.672H18.5903C18.5423 20.672 18.4943 20.624 18.4943 20.576V8.528C18.4943 6.368 16.7663 4.688 14.6543 4.688H14.3663C12.2063 4.688 10.5263 6.368 10.5263 8.528V20.576C10.5263 20.624 10.4783 20.672 10.4303 20.672H7.93431C7.88631 20.672 7.83831 20.624 7.83831 20.576V2.096C7.83831 2.048 7.88631 2 7.93431 2H21.0863C21.1343 2 21.1823 2.048 21.1823 2.096V20.576ZM5.15031 19.472C5.15031 21.632 6.87831 23.312 8.99031 23.312H9.32631C11.4383 23.312 13.1663 21.632 13.1663 19.472V7.424C13.1663 7.376 13.2143 7.328 13.2623 7.328H15.7583C15.8063 7.328 15.8543 7.376 15.8543 7.424V25.904C15.8543 25.952 15.8063 26 15.7583 26H2.60631C2.55831 26 2.51031 25.952 2.51031 25.904V2.096C2.51031 2.048 2.55831 2 2.60631 2H5.05431C5.15031 2 5.15031 2.048 5.15031 2.096V19.472ZM26.5103 25.904C26.5103 25.952 26.4623 26 26.4143 26H13.2623C13.2143 26 13.1663 25.952 13.1663 25.904V7.424C13.1663 7.376 13.2143 7.328 13.2623 7.328H15.7583C15.8063 7.328 15.8543 7.376 15.8543 7.424V19.472C15.8543 21.632 17.5343 23.312 19.6943 23.312H19.9823C22.1423 23.312 23.8223 21.632 23.8223 19.472V2.096C23.8223 2.048 23.8703 2 23.9183 2H26.4143C26.4623 2 26.5103 2.048 26.5103 2.096V25.904Z" fill="#7126FF"/>
</svg>
