<svg width="40" height="40" viewBox="0 0 40 40" fill="none" xmlns="http://www.w3.org/2000/svg">
<path d="M7.98175 22.048L10.3498 24.288H9.32575C6.38175 24.288 4.01375 21.92 4.01375 18.976C4.01375 16.032 6.38175 13.6 9.32575 13.6H11.1178V17.184H9.38975C8.42975 17.184 7.66175 18.016 7.66175 18.976C7.66175 19.936 8.42975 20.704 9.38975 20.704H11.2458V18.464C12.3978 17.248 13.4858 16.096 14.1258 15.392C16.4298 12.768 19.8218 11.104 23.5338 11.104C30.4458 11.104 36.0138 16.672 36.0138 23.52V23.712C36.0138 30.56 30.3818 36 23.5338 36H11.1178C7.21375 36 4.01375 32.8 4.01375 28.896C4.01375 26.912 4.84575 25.12 6.12575 23.84L7.98175 22.048ZM36.0138 3.936V7.52H12.9098V3.936H36.0138ZM9.32575 11.104C10.3498 11.104 11.1178 10.272 11.1178 9.312C11.1178 8.352 10.3498 7.584 9.32575 7.584C8.36575 7.584 7.59775 8.352 7.59775 9.312C7.59775 10.272 8.36575 11.104 9.32575 11.104ZM9.32575 4C12.2698 4 14.7018 6.368 14.7018 9.312C14.7018 12.256 12.2698 14.688 9.32575 14.688C6.38175 14.688 4.01375 12.256 4.01375 9.312C4.01375 6.368 6.38175 4 9.32575 4Z" fill="#0000FF"/>
</svg>
