<svg width="32" height="32" viewBox="0 0 32 32" fill="none" xmlns="http://www.w3.org/2000/svg">
<path d="M16.0002 30C14.8891 30 13.9446 29.6111 13.1668 28.8333C12.3891 28.0556 12.0002 27.1111 12.0002 26C12.0002 25.1333 12.2502 24.3556 12.7502 23.6667C13.2502 22.9778 13.8891 22.5 14.6668 22.2333V19.8C14.4224 19.7111 14.1891 19.6056 13.9668 19.4833C13.7446 19.3611 13.5446 19.2111 13.3668 19.0333L11.2668 20.2667C11.2891 20.3778 11.3057 20.4944 11.3168 20.6167C11.3279 20.7389 11.3335 20.8667 11.3335 21C11.3335 22.1111 10.9446 23.0556 10.1668 23.8333C9.38905 24.6111 8.44461 25 7.3335 25C6.22239 25 5.27794 24.6111 4.50016 23.8333C3.72238 23.0556 3.3335 22.1111 3.3335 21C3.3335 19.8889 3.72238 18.9444 4.50016 18.1667C5.27794 17.3889 6.22239 17 7.3335 17C7.84461 17 8.32239 17.0833 8.76683 17.25C9.21127 17.4167 9.61127 17.6556 9.96683 17.9667L12.0335 16.7667C12.0113 16.6556 11.9946 16.5333 11.9835 16.4C11.9724 16.2667 11.9668 16.1333 11.9668 16C11.9668 15.8667 11.9724 15.7389 11.9835 15.6167C11.9946 15.4944 12.0113 15.3778 12.0335 15.2667L9.96683 14.0333C9.61127 14.3444 9.21127 14.5833 8.76683 14.75C8.32239 14.9167 7.84461 15 7.3335 15C6.22239 15 5.27794 14.6111 4.50016 13.8333C3.72238 13.0556 3.3335 12.1111 3.3335 11C3.3335 9.88889 3.72238 8.94444 4.50016 8.16667C5.27794 7.38889 6.22239 7 7.3335 7C8.44461 7 9.38905 7.38889 10.1668 8.16667C10.9446 8.94444 11.3335 9.88889 11.3335 11C11.3335 11.1333 11.3279 11.2667 11.3168 11.4C11.3057 11.5333 11.2891 11.6556 11.2668 11.7667L13.3668 12.9667C13.5446 12.7889 13.7446 12.6444 13.9668 12.5333C14.1891 12.4222 14.4224 12.3222 14.6668 12.2333V9.8C13.8891 9.53333 13.2502 9.05 12.7502 8.35C12.2502 7.65 12.0002 6.86667 12.0002 6C12.0002 4.88889 12.3891 3.94444 13.1668 3.16667C13.9446 2.38889 14.8891 2 16.0002 2C17.1113 2 18.0557 2.38889 18.8335 3.16667C19.6113 3.94444 20.0002 4.88889 20.0002 6C20.0002 6.86667 19.7502 7.65 19.2502 8.35C18.7502 9.05 18.1113 9.53333 17.3335 9.8V12.2333C17.5779 12.3222 17.8057 12.4278 18.0168 12.55C18.2279 12.6722 18.4224 12.8222 18.6002 13L20.7335 11.7333C20.7113 11.6222 20.6946 11.5056 20.6835 11.3833C20.6724 11.2611 20.6668 11.1333 20.6668 11C20.6668 9.88889 21.0557 8.94444 21.8335 8.16667C22.6113 7.38889 23.5557 7 24.6668 7C25.7779 7 26.7224 7.38889 27.5002 8.16667C28.2779 8.94444 28.6668 9.88889 28.6668 11C28.6668 12.1111 28.2779 13.0556 27.5002 13.8333C26.7224 14.6111 25.7779 15 24.6668 15C24.1557 15 23.6835 14.9167 23.2502 14.75C22.8168 14.5833 22.4224 14.3444 22.0668 14.0333L19.9002 15.3C19.9224 15.4111 19.9391 15.5278 19.9502 15.65C19.9613 15.7722 19.9668 15.8889 19.9668 16C19.9668 16.1111 19.9613 16.2333 19.9502 16.3667C19.9391 16.5 19.9224 16.6222 19.9002 16.7333L22.0668 17.9667C22.4224 17.6556 22.8168 17.4167 23.2502 17.25C23.6835 17.0833 24.1557 17 24.6668 17C25.7779 17 26.7224 17.3889 27.5002 18.1667C28.2779 18.9444 28.6668 19.8889 28.6668 21C28.6668 22.1111 28.2779 23.0556 27.5002 23.8333C26.7224 24.6111 25.7779 25 24.6668 25C23.5557 25 22.6113 24.6111 21.8335 23.8333C21.0557 23.0556 20.6668 22.1111 20.6668 21C20.6668 20.8667 20.6724 20.7389 20.6835 20.6167C20.6946 20.4944 20.7113 20.3778 20.7335 20.2667L18.6002 19.0333C18.4224 19.2111 18.2279 19.3556 18.0168 19.4667C17.8057 19.5778 17.5779 19.6778 17.3335 19.7667V22.2333C18.1113 22.5 18.7502 22.9778 19.2502 23.6667C19.7502 24.3556 20.0002 25.1333 20.0002 26C20.0002 27.1111 19.6113 28.0556 18.8335 28.8333C18.0557 29.6111 17.1113 30 16.0002 30ZM16.0002 27.3333C16.3779 27.3333 16.6946 27.2056 16.9502 26.95C17.2057 26.6944 17.3335 26.3778 17.3335 26C17.3335 25.6222 17.2057 25.3056 16.9502 25.05C16.6946 24.7944 16.3779 24.6667 16.0002 24.6667C15.6224 24.6667 15.3057 24.7944 15.0502 25.05C14.7946 25.3056 14.6668 25.6222 14.6668 26C14.6668 26.3778 14.7946 26.6944 15.0502 26.95C15.3057 27.2056 15.6224 27.3333 16.0002 27.3333ZM7.3335 22.3333C7.71127 22.3333 8.02794 22.2056 8.2835 21.95C8.53905 21.6944 8.66683 21.3778 8.66683 21C8.66683 20.6222 8.53905 20.3056 8.2835 20.05C8.02794 19.7944 7.71127 19.6667 7.3335 19.6667C6.95572 19.6667 6.63905 19.7944 6.3835 20.05C6.12794 20.3056 6.00016 20.6222 6.00016 21C6.00016 21.3778 6.12794 21.6944 6.3835 21.95C6.63905 22.2056 6.95572 22.3333 7.3335 22.3333ZM24.6668 22.3333C25.0446 22.3333 25.3613 22.2056 25.6168 21.95C25.8724 21.6944 26.0002 21.3778 26.0002 21C26.0002 20.6222 25.8724 20.3056 25.6168 20.05C25.3613 19.7944 25.0446 19.6667 24.6668 19.6667C24.2891 19.6667 23.9724 19.7944 23.7168 20.05C23.4613 20.3056 23.3335 20.6222 23.3335 21C23.3335 21.3778 23.4613 21.6944 23.7168 21.95C23.9724 22.2056 24.2891 22.3333 24.6668 22.3333ZM16.0002 17.3333C16.3779 17.3333 16.6946 17.2056 16.9502 16.95C17.2057 16.6944 17.3335 16.3778 17.3335 16C17.3335 15.6222 17.2057 15.3056 16.9502 15.05C16.6946 14.7944 16.3779 14.6667 16.0002 14.6667C15.6224 14.6667 15.3057 14.7944 15.0502 15.05C14.7946 15.3056 14.6668 15.6222 14.6668 16C14.6668 16.3778 14.7946 16.6944 15.0502 16.95C15.3057 17.2056 15.6224 17.3333 16.0002 17.3333ZM7.3335 12.3333C7.71127 12.3333 8.02794 12.2056 8.2835 11.95C8.53905 11.6944 8.66683 11.3778 8.66683 11C8.66683 10.6222 8.53905 10.3056 8.2835 10.05C8.02794 9.79444 7.71127 9.66667 7.3335 9.66667C6.95572 9.66667 6.63905 9.79444 6.3835 10.05C6.12794 10.3056 6.00016 10.6222 6.00016 11C6.00016 11.3778 6.12794 11.6944 6.3835 11.95C6.63905 12.2056 6.95572 12.3333 7.3335 12.3333ZM24.6668 12.3333C25.0446 12.3333 25.3613 12.2056 25.6168 11.95C25.8724 11.6944 26.0002 11.3778 26.0002 11C26.0002 10.6222 25.8724 10.3056 25.6168 10.05C25.3613 9.79444 25.0446 9.66667 24.6668 9.66667C24.2891 9.66667 23.9724 9.79444 23.7168 10.05C23.4613 10.3056 23.3335 10.6222 23.3335 11C23.3335 11.3778 23.4613 11.6944 23.7168 11.95C23.9724 12.2056 24.2891 12.3333 24.6668 12.3333ZM16.0002 7.33333C16.3779 7.33333 16.6946 7.20556 16.9502 6.95C17.2057 6.69444 17.3335 6.37778 17.3335 6C17.3335 5.62222 17.2057 5.30556 16.9502 5.05C16.6946 4.79444 16.3779 4.66667 16.0002 4.66667C15.6224 4.66667 15.3057 4.79444 15.0502 5.05C14.7946 5.30556 14.6668 5.62222 14.6668 6C14.6668 6.37778 14.7946 6.69444 15.0502 6.95C15.3057 7.20556 15.6224 7.33333 16.0002 7.33333Z" fill="#EF4D2F"/>
</svg>
