<svg width="40" height="40" viewBox="0 0 40 40" fill="none" xmlns="http://www.w3.org/2000/svg">
<path d="M18.4662 12.2972C16.1536 0.673053 23.8433 0.673053 21.5307 12.2972C23.8433 0.673053 30.9479 3.61524 24.3631 13.4702C30.9479 3.61524 36.3848 9.05209 26.5298 15.6369C36.3848 9.05209 39.3269 16.1567 27.7028 18.4679C39.3269 16.1553 39.3269 23.845 27.7028 21.5324C39.3269 23.845 36.3834 30.9482 26.5298 24.3634C36.3834 30.9482 30.9465 36.3851 24.3631 26.5301C30.9479 36.3837 23.8433 39.3259 21.5321 27.7031C23.8447 39.3273 16.155 39.3273 18.4676 27.7031C16.155 39.3273 9.05178 36.3837 15.6366 26.5301C9.05178 36.3837 3.61493 30.9468 13.4699 24.3634C3.61632 30.9482 0.674132 23.8436 12.2969 21.5324C0.672743 23.845 0.672743 16.1553 12.2969 18.4679C0.672743 16.1553 3.61632 9.05209 13.4699 15.6369C3.61632 9.05209 9.05317 3.61524 15.6366 13.4702C9.05178 3.61663 16.1564 0.674442 18.4676 12.2972H18.4662Z" fill="#FF00FF"/>
</svg>
